<?xml version="1.0" encoding="UTF-8"?>
<svg width="20px" height="20px" viewBox="0 0 20 20" version="1.1" xmlns="http://www.w3.org/2000/svg" xmlns:xlink="http://www.w3.org/1999/xlink">
    <!-- Generator: Sketch 48.2 (47327) - http://www.bohemiancoding.com/sketch -->
    <title>forum</title>
    <desc>Created with Sketch.</desc>
    <defs></defs>
    <g id="Typography/icons" stroke="none" stroke-width="1" fill="none" fill-rule="evenodd" transform="translate(-945.000000, -722.000000)">
        <g id="Icons-Communication" transform="translate(735.000000, 680.000000)" fill="#000000">
            <g id="forum" transform="translate(210.000000, 42.000000)">
                <path d="M19,4 L17,4 L17,13 L4,13 L4,15 C4,15.6 4.4,16 5,16 L16,16 L20,20 L20,5 C20,4.4 19.6,4 19,4 L19,4 Z M15,10 L15,1 C15,0.4 14.6,0 14,0 L1,0 C0.4,0 0,0.4 0,1 L0,15 L4,11 L14,11 C14.6,11 15,10.6 15,10 L15,10 Z" id="Shape"></path>
            </g>
        </g>
    </g>
</svg>