<?xml version="1.0" encoding="UTF-8"?>
<svg width="20px" height="20px" viewBox="0 0 20 20" version="1.1" xmlns="http://www.w3.org/2000/svg" xmlns:xlink="http://www.w3.org/1999/xlink">
    <!-- Generator: Sketch 48.2 (47327) - http://www.bohemiancoding.com/sketch -->
    <title>add-file</title>
    <desc>Created with Sketch.</desc>
    <defs></defs>
    <g id="Symbols" stroke="none" stroke-width="1" fill="none" fill-rule="evenodd" fill-opacity="0.300000012">
        <g id="add-file" fill="#2D2E2C">
            <path d="M13.5001404,14.4375 C13.5001404,16.3712807 11.7100351,17.9376228 9.5,17.9376228 C7.28996491,17.9376228 5.49985965,16.3712807 5.49985965,14.4375 L5.49985965,3.50012281 C5.49985965,2.2924386 6.61992982,1.31237719 8.00014035,1.31237719 C9.37996491,1.31237719 10.5000351,2.2924386 10.5000351,3.50012281 L10.5000351,12.6874386 C10.5000351,13.1686886 10.0550175,13.5624693 9.5,13.5624693 C8.94498246,13.5624693 8.49996491,13.1686886 8.49996491,12.6874386 L8.49996491,4.37515351 L7.00010526,4.37515351 L7.00010526,12.6874386 C7.00010526,13.8951228 8.11978947,14.8748465 9.5,14.8748465 C10.8802105,14.8748465 11.9998947,13.8951228 11.9998947,12.6874386 L11.9998947,3.50012281 C11.9998947,1.56634211 10.2101754,0 8.00014035,0 C5.79010526,0 4,1.56634211 4,3.50012281 L4,14.4375 C4,17.0973772 6.46515789,19.25 9.5,19.25 C12.5348421,19.25 15,17.0973772 15,14.4375 L15,4.37515351 L13.5001404,4.37515351 L13.5001404,14.4375 Z" id="Attach-file-01"></path>
        </g>
    </g>
</svg>