<?xml version="1.0" encoding="UTF-8"?>
<svg width="22px" height="15px" viewBox="0 0 22 15" version="1.1" xmlns="http://www.w3.org/2000/svg" xmlns:xlink="http://www.w3.org/1999/xlink">
    <!-- Generator: Sketch 48.2 (47327) - http://www.bohemiancoding.com/sketch -->
    <title>visibility</title>
    <desc>Created with Sketch.</desc>
    <defs></defs>
    <g id="Typography/icons" stroke="none" stroke-width="1" fill="none" fill-rule="evenodd" transform="translate(-354.000000, -808.000000)">
        <g id="Core" transform="translate(103.000000, 300.000000)" fill="#000000">
            <g id="visibility" transform="translate(251.000000, 507.500000)">
                <path d="M11,0.5 C6,0.5 1.7,3.6 0,8 C1.7,12.4 6,15.5 11,15.5 C16,15.5 20.3,12.4 22,8 C20.3,3.6 16,0.5 11,0.5 L11,0.5 Z M11,13 C8.2,13 6,10.8 6,8 C6,5.2 8.2,3 11,3 C13.8,3 16,5.2 16,8 C16,10.8 13.8,13 11,13 L11,13 Z M11,5 C9.3,5 8,6.3 8,8 C8,9.7 9.3,11 11,11 C12.7,11 14,9.7 14,8 C14,6.3 12.7,5 11,5 L11,5 Z" id="Shape"></path>
            </g>
        </g>
    </g>
</svg>